<svg width="2257" height="404" viewBox="0 0 2257 404" fill="none" xmlns="http://www.w3.org/2000/svg">
<path d="M632.015 383.343V114.342H682.972V383.343H632.015Z" fill="#00815D"/>
<path d="M897.963 330.962C888.36 362.565 858.53 388.93 812.135 388.93C760.397 388.93 714.842 352.904 714.842 291.212C714.842 232.896 759.257 195.007 807.573 195.007C865.793 195.007 900.664 231.033 900.664 289.757C900.664 296.799 899.884 304.249 899.884 305.005H765.019C766.159 329.158 787.226 346.618 812.555 346.618C836.323 346.618 849.347 335.095 855.469 318.74L898.023 331.021L897.963 330.962ZM850.427 271.133C849.647 252.916 837.403 235.107 808.293 235.107C781.825 235.107 767.3 254.429 766.159 271.133H850.427Z" fill="#00815D"/>
<path d="M977.85 278.233L1024.19 271.54C1034.93 270.085 1038.35 264.847 1038.35 258.562C1038.35 245.583 1028.03 234.758 1006.54 234.758C985.052 234.758 972.088 248.493 970.527 264.498L925.332 255.186C928.393 226.552 955.583 195.007 1006.18 195.007C1065.96 195.007 1088.17 227.716 1088.17 264.498V354.417C1088.17 364.078 1089.31 377.057 1090.45 383.401H1043.69C1042.55 378.57 1041.77 368.56 1041.77 361.459C1032.17 375.951 1014.16 388.58 986.193 388.58C945.979 388.58 921.431 362.216 921.431 333.582C921.431 300.873 946.339 282.656 977.73 278.233H977.85ZM1038.41 309.428V301.28L995.856 307.624C982.832 309.487 972.508 316.529 972.508 330.672C972.508 341.439 980.551 351.856 997.056 351.856C1018.54 351.856 1038.41 341.846 1038.41 309.487V309.428Z" fill="#00815D"/>
<path d="M1191.22 180.515V200.594H1233.78V242.964H1191.22V383.401H1139.9V242.964H1108.51V200.594H1139.9V179.759C1139.9 138.495 1166.73 111.781 1208.51 111.781C1219.25 111.781 1229.57 113.644 1233.78 115.506V157.119C1231.07 156.362 1226.09 155.257 1217.69 155.257C1206.23 155.257 1191.28 160.087 1191.28 180.515H1191.22Z" fill="#00815D"/>
<path d="M1307.3 383.342H1256.34V200.536H1305.74V223.176C1317.2 204.203 1339.83 195.706 1360.12 195.706C1406.87 195.706 1428.3 228.007 1428.3 268.165V383.342H1377.34V276.72C1377.34 256.292 1367.02 240.287 1342.47 240.287C1320.26 240.287 1307.24 256.99 1307.24 278.175V383.342H1307.3Z" fill="#00815D"/>
<path d="M1655.96 291.968C1655.96 348.073 1613.4 388.93 1557.1 388.93C1500.8 388.93 1458.25 348.073 1458.25 291.968C1458.25 235.864 1500.8 195.007 1557.1 195.007C1613.4 195.007 1655.96 235.514 1655.96 291.968ZM1605 291.968C1605 257.398 1582.01 239.938 1557.1 239.938C1532.19 239.938 1509.21 257.398 1509.21 291.968C1509.21 326.539 1532.19 343.999 1557.1 343.999C1582.01 343.999 1605 326.539 1605 291.968Z" fill="#00815D"/>
<path d="M1869.51 350.285C1869.51 362.565 1870.29 375.893 1871.07 383.342H1822.39C1821.61 379.617 1820.47 370.713 1820.47 362.158C1812.07 376.649 1792.86 387.766 1767.59 387.766C1713.94 387.766 1675.64 346.909 1675.64 291.561C1675.64 236.213 1712.79 196.055 1766.03 196.055C1798.62 196.055 1813.93 209.033 1819.27 218.695V114.284H1869.45V350.168L1869.51 350.285ZM1773.72 343.592C1799.76 343.592 1820.05 324.269 1820.05 291.212C1820.05 258.154 1799.76 240.287 1773.72 240.287C1747.67 240.287 1726.96 258.853 1726.96 291.561C1726.96 324.269 1746.89 343.592 1773.72 343.592Z" fill="#00815D"/>
<path d="M2084.26 330.962C2074.66 362.565 2044.83 388.93 1998.43 388.93C1946.69 388.93 1901.14 352.904 1901.14 291.212C1901.14 232.896 1945.55 195.007 1993.87 195.007C2052.09 195.007 2086.96 231.033 2086.96 289.757C2086.96 296.799 2086.18 304.249 2086.18 305.005H1951.31C1952.45 329.158 1973.52 346.618 1998.85 346.618C2022.62 346.618 2035.64 335.095 2041.76 318.74L2084.32 331.021L2084.26 330.962ZM2036.72 271.133C2035.94 252.916 2023.7 235.107 1994.59 235.107C1968.12 235.107 1953.6 254.429 1952.45 271.133H2036.72Z" fill="#00815D"/>
<path d="M2148.48 323.164C2149.62 337.655 2160.72 351.042 2182.93 351.042C2199.8 351.042 2207.84 342.486 2207.84 332.825C2207.84 324.677 2202.08 317.984 2187.55 315.016L2162.64 309.428C2126.27 301.63 2109.77 280.445 2109.77 254.837C2109.77 222.129 2139.66 195.007 2180.29 195.007C2233.95 195.007 2251.95 228.065 2254.23 247.737L2211.68 257.048C2210.12 246.281 2202.08 232.546 2180.65 232.546C2167.27 232.546 2156.52 240.345 2156.52 250.763C2156.52 259.667 2163.42 265.255 2173.75 267.117L2200.58 272.704C2237.73 280.154 2256.52 302.037 2256.52 328.809C2256.52 358.549 2232.75 388.988 2183.35 388.988C2126.63 388.988 2107.13 353.311 2104.79 332.534L2148.48 323.222V323.164Z" fill="#00815D"/>
<path d="M426.153 186.918L248.163 351.104L262.972 366.2L440.963 202.014L426.153 186.918Z" fill="#00815D"/>
<path d="M266.313 145.712H244.826V358.782H266.313V145.712Z" fill="#00815D"/>
<path d="M255.569 403.189C280.861 403.189 301.364 383.307 301.364 358.782C301.364 334.257 280.861 314.375 255.569 314.375C230.277 314.375 209.774 334.257 209.774 358.782C209.774 383.307 230.277 403.189 255.569 403.189Z" fill="#00815D"/>
<path d="M442.772 348.364H129.768V369.2H442.772V348.364Z" fill="#00815D"/>
<path d="M255.57 276.429C102.519 128.019 255.57 0.211914 255.57 0.211914C255.57 0.211914 408.621 128.019 255.57 276.429Z" fill="#00815D"/>
<path d="M317.09 302.037C321.411 134.479 481.905 149.961 481.905 149.961C481.905 149.961 489.887 306.169 317.09 302.037Z" fill="#00815D"/>
<path d="M510.594 358.782C419.184 270.144 340.438 358.782 340.438 358.782C340.438 358.782 419.184 447.421 510.594 358.782Z" fill="#00815D"/>
<path d="M85.6084 186.366L70.7471 201.415L248.175 366.172L263.036 351.123L85.6084 186.366Z" fill="#00815D"/>
<path d="M194.049 302.037C189.727 134.479 29.2339 149.961 29.2339 149.961C29.2339 149.961 21.2512 306.169 194.049 302.037Z" fill="#00815D"/>
<path d="M0.484375 358.782C91.8948 270.144 170.641 358.782 170.641 358.782C170.641 358.782 91.8948 447.421 0.484375 358.782Z" fill="#00815D"/>
</svg>
